{
  "accessors": [
    {
      "bufferView": 2,
      "componentType": 5126,
      "count": 325,
      "max": [
        0.5,
        0.5,
        0.5
      ],
      "min": [
        -0.5,
        -0.5,
        -0.5
      ],
      "type": "VEC3"
    },
    {
      "bufferView": 2,
      "byteOffset": 3900,
      "componentType": 5126,
      "count": 325,
      "max": [
        0.9999999403953552,
        0.9989277720451355,
        0.9989277124404907
      ],
      "min": [
        -0.9999999403953552,
        -0.9989277124404907,
        -0.9989278316497803
      ],
      "type": "VEC3"
    },
    {
      "bufferView": 1,
      "componentType": 5126,
      "count": 325,
      "max": [
        1.0,
        1.0
      ],
      "min": [
        0.0,
        0.0
      ],
      "type": "VEC2"
    },
    {
      "bufferView": 0,
      "componentType": 5125,
      "count": 1728,
      "type": "SCALAR"
    },
    {
      "bufferView": 2,
      "byteOffset": 7800,
      "componentType": 5126,
      "count": 5794,
      "max": [
        0.46243199706077576,
        0.4764550030231476,
        0.5
      ],
      "min": [
        -0.46244800090789795,
        -0.46633899211883545,
        -0.4838860034942627
      ],
      "type": "VEC3"
    },
    {
      "bufferView": 2,
      "byteOffset": 77328,
      "componentType": 5126,
      "count": 5794,
      "max": [
        0.9998039603233337,
        0.9997723698616028,
        0.9994041919708252
      ],
      "min": [
        -0.999803900718689,
        -0.9997168183326721,
        -0.9998518824577332
      ],
      "type": "VEC3"
    },
    {
      "bufferView": 1,
      "byteOffset": 2600,
      "componentType": 5126,
      "count": 5794,
      "max": [
        0.8132290244102478,
        0.9935240149497986
      ],
      "min": [
        0.006375609897077084,
        0.008781190030276775
      ],
      "type": "VEC2"
    },
    {
      "bufferView": 0,
      "byteOffset": 6912,
      "componentType": 5125,
      "count": 31896,
      "type": "SCALAR"
    },
    {
      "bufferView": 2,
      "byteOffset": 146856,
      "componentType": 5126,
      "count": 45,
      "max": [
        0.4356679916381836,
        0.21430499851703644,
        0.4232169985771179
      ],
      "min": [
        0.2583119869232178,
        -0.3326700031757355,
        0.12372799962759018
      ],
      "type": "VEC3"
    },
    {
      "bufferView": 2,
      "byteOffset": 147396,
      "componentType": 5126,
      "count": 45,
      "max": [
        0.8954162001609802,
        0.12700344622135162,
        0.8038384914398193
      ],
      "min": [
        0.591827929019928,
        -0.6603671908378601,
        0.2091863453388214
      ],
      "type": "VEC3"
    },
    {
      "bufferView": 1,
      "byteOffset": 48952,
      "componentType": 5126,
      "count": 45,
      "max": [
        1.9777300357818604,
        0.8916959762573242
      ],
      "min": [
        1.8168799877166748,
        0.6018570065498352
      ],
      "type": "VEC2"
    },
    {
      "bufferView": 0,
      "byteOffset": 134496,
      "componentType": 5125,
      "count": 192,
      "type": "SCALAR"
    },
    {
      "bufferView": 2,
      "byteOffset": 147936,
      "componentType": 5126,
      "count": 2477,
      "max": [
        0.5,
        0.5,
        0.4908899962902069
      ],
      "min": [
        -0.5,
        -0.5,
        -0.5
      ],
      "type": "VEC3"
    },
    {
      "bufferView": 2,
      "byteOffset": 177660,
      "componentType": 5126,
      "count": 2477,
      "max": [
        0.9999999403953552,
        0.9989482164382935,
        0.9994352459907532
      ],
      "min": [
        -0.9999999403953552,
        -0.9985144138336182,
        -0.9992532134056091
      ],
      "type": "VEC3"
    },
    {
      "bufferView": 1,
      "byteOffset": 49312,
      "componentType": 5126,
      "count": 2477,
      "max": [
        1.9921300411224365,
        0.9953389763832092
      ],
      "min": [
        1.0120099782943726,
        0.0035428700502961874
      ],
      "type": "VEC2"
    },
    {
      "bufferView": 0,
      "byteOffset": 135264,
      "componentType": 5125,
      "count": 13314,
      "type": "SCALAR"
    },
    {
      "bufferView": 2,
      "byteOffset": 207384,
      "componentType": 5126,
      "count": 204,
      "max": [
        0.41238299012184143,
        0.32416999340057373,
        -0.24811899662017822
      ],
      "min": [
        0.2336689978837967,
        -0.22355200350284576,
        -0.3991680145263672
      ],
      "type": "VEC3"
    },
    {
      "bufferView": 2,
      "byteOffset": 209832,
      "componentType": 5126,
      "count": 204,
      "max": [
        0.9881662726402283,
        0.9714567065238953,
        0.718234658241272
      ],
      "min": [
        0.04185568913817406,
        -0.898948609828949,
        -0.9327628016471863
      ],
      "type": "VEC3"
    },
    {
      "bufferView": 1,
      "byteOffset": 69128,
      "componentType": 5126,
      "count": 204,
      "max": [
        0.5704150199890137,
        0.38606399297714233
      ],
      "min": [
        0.2954939901828766,
        0.27150899171829224
      ],
      "type": "VEC2"
    },
    {
      "bufferView": 0,
      "byteOffset": 188520,
      "componentType": 5125,
      "count": 816,
      "type": "SCALAR"
    },
    {
      "bufferView": 2,
      "byteOffset": 212280,
      "componentType": 5126,
      "count": 444,
      "max": [
        0.4178450107574463,
        0.47935500741004944,
        0.4396199882030487
      ],
      "min": [
        -0.4178610146045685,
        -0.09055469930171967,
        -0.33512601256370544
      ],
      "type": "VEC3"
    },
    {
      "bufferView": 2,
      "byteOffset": 217608,
      "componentType": 5126,
      "count": 444,
      "max": [
        1.0,
        0.9955680966377258,
        0.8910108208656311
      ],
      "min": [
        -0.9999999403953552,
        -0.9955654144287109,
        -0.8910172581672668
      ],
      "type": "VEC3"
    },
    {
      "bufferView": 1,
      "byteOffset": 70760,
      "componentType": 5126,
      "count": 444,
      "max": [
        2.990649938583374,
        0.9861109852790833
      ],
      "min": [
        2.009350061416626,
        0.009304139763116837
      ],
      "type": "VEC2"
    },
    {
      "bufferView": 0,
      "byteOffset": 191784,
      "componentType": 5125,
      "count": 2232,
      "type": "SCALAR"
    },
    {
      "bufferView": 2,
      "byteOffset": 222936,
      "componentType": 5126,
      "count": 1254,
      "max": [
        0.43203601241111755,
        0.39300400018692017,
        0.4503619968891144
      ],
      "min": [
        -0.43205198645591736,
        -0.01039899978786707,
        -0.3508889973163605
      ],
      "type": "VEC3"
    },
    {
      "bufferView": 2,
      "byteOffset": 237984,
      "componentType": 5126,
      "count": 1254,
      "max": [
        0.9999997615814209,
        1.0,
        0.9986887574195862
      ],
      "min": [
        -0.9999997019767761,
        -0.9963254928588867,
        -0.9965654015541077
      ],
      "type": "VEC3"
    },
    {
      "bufferView": 1,
      "byteOffset": 74312,
      "componentType": 5126,
      "count": 1254,
      "max": [
        0.9940509796142578,
        0.7145599722862244
      ],
      "min": [
        0.7533739805221558,
        0.0175199992954731
      ],
      "type": "VEC2"
    },
    {
      "bufferView": 0,
      "byteOffset": 200712,
      "componentType": 5125,
      "count": 6912,
      "type": "SCALAR"
    },
    {
      "bufferView": 2,
      "byteOffset": 253032,
      "componentType": 5126,
      "count": 151,
      "max": [
        0.5,
        0.5,
        0.5
      ],
      "min": [
        -0.5,
        -0.5,
        -0.5
      ],
      "type": "VEC3"
    },
    {
      "bufferView": 2,
      "byteOffset": 254844,
      "componentType": 5126,
      "count": 151,
      "max": [
        0.9999999403953552,
        0.9999999403953552,
        0.9999999403953552
      ],
      "min": [
        -0.9999999403953552,
        -0.9999999403953552,
        -0.9999999403953552
      ],
      "type": "VEC3"
    },
    {
      "bufferView": 1,
      "byteOffset": 84344,
      "componentType": 5126,
      "count": 151,
      "max": [
        1.0,
        1.0
      ],
      "min": [
        0.0,
        0.0
      ],
      "type": "VEC2"
    },
    {
      "bufferView": 0,
      "byteOffset": 228360,
      "componentType": 5125,
      "count": 672,
      "type": "SCALAR"
    }
  ],
  "asset": {
    "extras": {
      "author": "𝕽𝖊𝖆𝖑 𝕾𝖑𝖎𝖒 𝕾𝖍𝖆𝖉𝖞 (https://sketchfab.com/fcuk1)",
      "license": "CC-BY-4.0 (http://creativecommons.org/licenses/by/4.0/)",
      "source": "https://sketchfab.com/3d-models/space-helm-3d-model-f9b0eb2daf204a6da9e1c29c7b2b4295",
      "title": "Space Helm 3D Model"
    },
    "generator": "Sketchfab-15.85.0",
    "version": "2.0"
  },
  "bufferViews": [
    {
      "buffer": 0,
      "byteLength": 231048,
      "name": "floatBufferViews",
      "target": 34963
    },
    {
      "buffer": 0,
      "byteLength": 85552,
      "byteOffset": 231048,
      "byteStride": 8,
      "name": "floatBufferViews",
      "target": 34962
    },
    {
      "buffer": 0,
      "byteLength": 256656,
      "byteOffset": 316600,
      "byteStride": 12,
      "name": "floatBufferViews",
      "target": 34962
    }
  ],
  "buffers": [
    {
      "byteLength": 573256,
      "uri": "scene.bin"
    }
  ],
  "images": [
    {
      "uri": "textures/Material0-material_baseColor.png"
    },
    {
      "uri": "textures/Material1-material_baseColor.png"
    },
    {
      "uri": "textures/Material3-material_baseColor.png"
    }
  ],
  "materials": [
    {
      "doubleSided": true,
      "emissiveFactor": [
        0.29908636984705667,
        0.29908636984705667,
        0.29908636984705667
      ],
      "emissiveTexture": {
        "index": 0
      },
      "name": "Material0-material",
      "pbrMetallicRoughness": {
        "baseColorTexture": {
          "index": 0
        },
        "roughnessFactor": 0.0
      }
    },
    {
      "doubleSided": true,
      "emissiveFactor": [
        1.0,
        1.0,
        1.0
      ],
      "emissiveTexture": {
        "index": 1
      },
      "name": "Material1-material",
      "pbrMetallicRoughness": {
        "baseColorTexture": {
          "index": 1
        },
        "metallicFactor": 0.35732950502779925,
        "roughnessFactor": 0.4
      }
    },
    {
      "alphaMode": "BLEND",
      "doubleSided": true,
      "name": "Material2-material",
      "pbrMetallicRoughness": {
        "baseColorFactor": [
          1.0,
          1.0,
          1.0,
          0.0
        ],
        "metallicFactor": 0.0,
        "roughnessFactor": 0.6
      }
    },
    {
      "doubleSided": true,
      "emissiveFactor": [
        1.0,
        1.0,
        1.0
      ],
      "emissiveTexture": {
        "index": 2
      },
      "name": "Material3-material",
      "pbrMetallicRoughness": {
        "baseColorTexture": {
          "index": 2
        },
        "metallicFactor": 0.0,
        "roughnessFactor": 0.4
      }
    },
    {
      "doubleSided": true,
      "emissiveFactor": [
        1.0,
        1.0,
        1.0
      ],
      "emissiveTexture": {
        "index": 2
      },
      "name": "Material4-material",
      "pbrMetallicRoughness": {
        "baseColorTexture": {
          "index": 2
        },
        "metallicFactor": 0.0,
        "roughnessFactor": 0.4
      }
    },
    {
      "doubleSided": true,
      "name": "Material5-material",
      "pbrMetallicRoughness": {
        "metallicFactor": 0.0,
        "roughnessFactor": 0.6
      }
    },
    {
      "alphaMode": "BLEND",
      "doubleSided": true,
      "name": "Material6-material",
      "pbrMetallicRoughness": {
        "baseColorFactor": [
          1.0,
          1.0,
          1.0,
          0.0
        ],
        "metallicFactor": 0.0,
        "roughnessFactor": 0.6
      }
    }
  ],
  "meshes": [
    {
      "name": "Material6-material",
      "primitives": [
        {
          "attributes": {
            "NORMAL": 1,
            "POSITION": 0,
            "TEXCOORD_0": 2
          },
          "indices": 3,
          "material": 6,
          "mode": 4
        }
      ]
    },
    {
      "name": "Material1-material",
      "primitives": [
        {
          "attributes": {
            "NORMAL": 5,
            "POSITION": 4,
            "TEXCOORD_0": 6
          },
          "indices": 7,
          "material": 1,
          "mode": 4
        }
      ]
    },
    {
      "name": "Material3-material",
      "primitives": [
        {
          "attributes": {
            "NORMAL": 9,
            "POSITION": 8,
            "TEXCOORD_0": 10
          },
          "indices": 11,
          "material": 3,
          "mode": 4
        }
      ]
    },
    {
      "name": "Material4-material",
      "primitives": [
        {
          "attributes": {
            "NORMAL": 13,
            "POSITION": 12,
            "TEXCOORD_0": 14
          },
          "indices": 15,
          "material": 4,
          "mode": 4
        }
      ]
    },
    {
      "name": "Material5-material",
      "primitives": [
        {
          "attributes": {
            "NORMAL": 17,
            "POSITION": 16,
            "TEXCOORD_0": 18
          },
          "indices": 19,
          "material": 5,
          "mode": 4
        }
      ]
    },
    {
      "name": "Material0-material",
      "primitives": [
        {
          "attributes": {
            "NORMAL": 21,
            "POSITION": 20,
            "TEXCOORD_0": 22
          },
          "indices": 23,
          "material": 0,
          "mode": 4
        }
      ]
    },
    {
      "name": "Material1-material",
      "primitives": [
        {
          "attributes": {
            "NORMAL": 25,
            "POSITION": 24,
            "TEXCOORD_0": 26
          },
          "indices": 27,
          "material": 1,
          "mode": 4
        }
      ]
    },
    {
      "name": "Material2-material",
      "primitives": [
        {
          "attributes": {
            "NORMAL": 29,
            "POSITION": 28,
            "TEXCOORD_0": 30
          },
          "indices": 31,
          "material": 2,
          "mode": 4
        }
      ]
    }
  ],
  "nodes": [
    {
      "children": [
        1
      ],
      "matrix": [
        0.9309893846511841,
        0.08894465863704673,
        0.354044646024704,
        0.0,
        0.2882879078388214,
        0.41582575440406816,
        -0.8625422120094298,
        0.0,
        -0.22393940389156342,
        0.9050844311714171,
        0.36148768663406394,
        0.0,
        0.0,
        0.0,
        0.0,
        1.0
      ],
      "name": "Sketchfab_model"
    },
    {
      "children": [
        2,
        4,
        9
      ],
      "name": "Collada visual scene group"
    },
    {
      "children": [
        3
      ],
      "matrix": [
        -0.0030701,
        -0.00709927,
        -0.0270303,
        0.0,
        0.0101936,
        -0.0256039,
        0.00556687,
        0.0,
        -0.0260216,
        -0.00919233,
        0.00536981,
        0.0,
        0.0,
        0.0,
        0.0,
        1.0
      ],
      "name": "prim2"
    },
    {
      "mesh": 0,
      "name": "Material6-material"
    },
    {
      "children": [
        5,
        6,
        7,
        8
      ],
      "matrix": [
        0.224515,
        0.0791885,
        -0.0462986,
        0.0,
        -0.083331,
        0.209666,
        -0.0454854,
        0.0,
        0.0319881,
        0.0737196,
        0.281209,
        0.0,
        -0.0229492,
        0.106033,
        0.0580788,
        1.0
      ],
      "name": "prim1"
    },
    {
      "mesh": 1,
      "name": "Material1-material"
    },
    {
      "mesh": 2,
      "name": "Material3-material"
    },
    {
      "mesh": 3,
      "name": "Material4-material"
    },
    {
      "mesh": 4,
      "name": "Material5-material"
    },
    {
      "children": [
        10,
        11,
        12
      ],
      "matrix": [
        0.242225,
        0.085474,
        -0.0499609,
        0.0,
        -0.0947815,
        0.238357,
        -0.0517433,
        0.0,
        0.0286072,
        0.0659931,
        0.251598,
        0.0,
        -0.0275421,
        0.129929,
        0.0767097,
        1.0
      ],
      "name": "prim0"
    },
    {
      "mesh": 5,
      "name": "Material0-material"
    },
    {
      "mesh": 6,
      "name": "Material1-material"
    },
    {
      "mesh": 7,
      "name": "Material2-material"
    }
  ],
  "samplers": [
    {
      "magFilter": 9729,
      "minFilter": 9987,
      "wrapS": 10497,
      "wrapT": 10497
    }
  ],
  "scene": 0,
  "scenes": [
    {
      "name": "Sketchfab_Scene",
      "nodes": [
        0
      ]
    }
  ],
  "textures": [
    {
      "sampler": 0,
      "source": 0
    },
    {
      "sampler": 0,
      "source": 1
    },
    {
      "sampler": 0,
      "source": 2
    }
  ]
}
